<svg xmlns="http://www.w3.org/2000/svg" xmlns:xlink="http://www.w3.org/1999/xlink" width="258" height="155" viewBox="0 0 258 155">
    <defs>
        <filter id="pd1tb6bu3a" width="121.1%" height="155.3%" x="-9.1%" y="-24%" filterUnits="objectBoundingBox">
            <feOffset dx="3" dy="3" in="SourceAlpha" result="shadowOffsetOuter1"/>
            <feGaussianBlur in="shadowOffsetOuter1" result="shadowBlurOuter1" stdDeviation="7"/>
            <feColorMatrix in="shadowBlurOuter1" values="0 0 0 0 0 0 0 0 0 0 0 0 0 0 0 0 0 0 0.15 0"/>
        </filter>
        <filter id="tn20006z6c" width="151.8%" height="176.1%" x="-22.5%" y="-33%" filterUnits="objectBoundingBox">
            <feOffset dx="3" dy="3" in="SourceAlpha" result="shadowOffsetOuter1"/>
            <feGaussianBlur in="shadowOffsetOuter1" result="shadowBlurOuter1" stdDeviation="7"/>
            <feColorMatrix in="shadowBlurOuter1" values="0 0 0 0 0 0 0 0 0 0 0 0 0 0 0 0 0 0 0.15 0"/>
        </filter>
        <filter id="0qtmw7v7me" width="151.8%" height="176.1%" x="-22.5%" y="-33%" filterUnits="objectBoundingBox">
            <feOffset dx="3" dy="3" in="SourceAlpha" result="shadowOffsetOuter1"/>
            <feGaussianBlur in="shadowOffsetOuter1" result="shadowBlurOuter1" stdDeviation="7"/>
            <feColorMatrix in="shadowBlurOuter1" values="0 0 0 0 0 0 0 0 0 0 0 0 0 0 0 0 0 0 0.15 0"/>
        </filter>
        <rect id="4ktz2fh9sb" width="213.444" height="81.312" x="15.708" y="28.644" rx="12.936"/>
        <rect id="q2tsrpvand" width="86.856" height="59.136" x="0" y="0" rx="9.24"/>
        <rect id="twecvua7mf" width="86.856" height="59.136" x="0" y="67.452" rx="9.24"/>
    </defs>
    <g fill="none" fill-rule="evenodd">
        <g>
            <g>
                <g transform="translate(-44.000000, -1293.000000) translate(55.000000, 1304.000000)">
                    <use fill="#000" filter="url(#pd1tb6bu3a)" xlink:href="#4ktz2fh9sb"/>
                    <use fill="#FFF" xlink:href="#4ktz2fh9sb"/>
                </g>
                <text fill="#3B3E41" font-family="IRANSans" font-size="12.936" transform="translate(-44.000000, -1293.000000) translate(55.000000, 1304.000000)">
                    <tspan x="145.877" y="54.584">منزل ویلایی</tspan>
                </text>
                <text fill="#377DFF" font-family="IRANSans-UltraLight, IRANSans" font-size="11.088" font-weight="300" transform="translate(-44.000000, -1293.000000) translate(55.000000, 1304.000000)">
                    <tspan x="156.156" y="84.996">تعداد بازدید</tspan>
                </text>
                <path fill="#4687FF" fill-rule="nonzero" d="M148.263 88.704c-2.523 0-4.312-1.756-5.967-3.676-1.669 1.932-3.452 3.676-5.967 3.676-2.824 0-5.121-2.28-5.121-5.082s2.297-5.082 5.12-5.082c2.525 0 4.369 1.792 5.968 3.638 1.599-1.844 3.444-3.638 5.967-3.638 2.824 0 5.121 2.28 5.121 5.082s-2.298 5.082-5.12 5.082zm-4.756-5.1c1.498 1.752 2.946 3.252 4.756 3.252 1.805 0 3.273-1.45 3.273-3.233 0-1.783-1.468-3.233-3.273-3.233-1.837-.001-3.284 1.49-4.756 3.214zm-7.178-3.215c-1.805 0-3.273 1.45-3.273 3.233 0 1.783 1.468 3.233 3.273 3.233 1.82 0 3.272-1.513 4.756-3.253-1.474-1.722-2.92-3.213-4.756-3.213z" transform="translate(-44.000000, -1293.000000) translate(55.000000, 1304.000000)"/>
                <g transform="translate(-44.000000, -1293.000000) translate(55.000000, 1304.000000)">
                    <use fill="#000" filter="url(#tn20006z6c)" xlink:href="#q2tsrpvand"/>
                    <use fill="#377DFF" xlink:href="#q2tsrpvand"/>
                </g>
                <g transform="translate(-44.000000, -1293.000000) translate(55.000000, 1304.000000)">
                    <use fill="#000" filter="url(#0qtmw7v7me)" xlink:href="#twecvua7mf"/>
                    <use fill="#377DFF" xlink:href="#twecvua7mf"/>
                </g>
                <path fill="#FFF" fill-rule="nonzero" d="M47.72 85.008c1.58 0 2.862 1.29 2.862 2.883v.96h4.769c1.58 0 2.861 1.292 2.861 2.884v14.414c0 1.592-1.281 2.883-2.861 2.883H31.505c-1.58 0-2.861-1.29-2.861-2.883V91.735c0-1.592 1.281-2.883 2.861-2.883h4.77v-.961c0-1.592 1.28-2.883 2.86-2.883h8.585zm0 1.922h-8.584c-.527 0-.954.43-.954.96v2.884h-6.677c-.526 0-.953.43-.953.96v14.415c0 .53.427.961.953.961h23.846c.526 0 .953-.43.953-.96V91.734c0-.531-.427-.961-.953-.961h-6.677V87.89c0-.53-.427-.961-.954-.961zm-4.292 4.805c3.424 0 6.2 2.796 6.2 6.246 0 3.45-2.776 6.246-6.2 6.246-3.424 0-6.2-2.796-6.2-6.246 0-3.45 2.776-6.246 6.2-6.246zm0 1.922c-2.37 0-4.292 1.936-4.292 4.324s1.922 4.324 4.292 4.324 4.292-1.936 4.292-4.324-1.922-4.324-4.292-4.324zM47.72 17.556c1.58 0 2.862 1.29 2.862 2.883v.96h4.769c1.58 0 2.861 1.292 2.861 2.884v14.414c0 1.592-1.281 2.883-2.861 2.883H31.505c-1.58 0-2.861-1.29-2.861-2.883V24.283c0-1.592 1.281-2.883 2.861-2.883h4.77v-.961c0-1.592 1.28-2.883 2.86-2.883h8.585zm0 1.922h-8.584c-.527 0-.954.43-.954.96v2.884h-6.677c-.526 0-.953.43-.953.96v14.415c0 .53.427.961.953.961h23.846c.526 0 .953-.43.953-.96V24.282c0-.531-.427-.961-.953-.961h-6.677v-2.883c0-.53-.427-.961-.954-.961zm-4.292 4.805c3.424 0 6.2 2.796 6.2 6.246 0 3.45-2.776 6.246-6.2 6.246-3.424 0-6.2-2.796-6.2-6.246 0-3.45 2.776-6.246 6.2-6.246zm0 1.922c-2.37 0-4.292 1.936-4.292 4.324s1.922 4.324 4.292 4.324 4.292-1.936 4.292-4.324-1.922-4.324-4.292-4.324z" transform="translate(-44.000000, -1293.000000) translate(55.000000, 1304.000000)"/>
            </g>
        </g>
    </g>
</svg>
