<svg xmlns="http://www.w3.org/2000/svg" width="126" height="32" viewBox="0 0 126 32">
    <g fill="none" fill-rule="evenodd">
        <g>
            <g>
                <text fill="#000" font-family="IRANSans-Light, IRANSans" font-size="15" font-weight="300" transform="translate(-1146.000000, -49.000000) translate(1146.000000, 49.000000)">
                    <tspan x="0" y="20">واسط کالا</tspan>
                </text>
                <g fill="#377DFF">
                    <path d="M16.39 14.695c5.976 5.818 15.705 9.365 24.396.906.554-.54 1.501-.025 1.13.366-3.57 3.474-5.221 5.357-8.41 8.462C20.533 37.052 8.41 31.837 0 23.651c1.738-1.692 7.823-7.417 10.034-9.466 2.729-2.528 5.465-.357 6.356.51z" transform="translate(-1146.000000, -49.000000) translate(1146.000000, 49.000000) translate(67.000000, 0.000000)"/>
                    <path d="M26.171 18.928c-.208.204-1.433-.059-1.12-.369 3.539-3.492 8.16-8.326 11.324-11.447 9.65-9.518 17.778-7.808 21.172-4.462 1.018 1.003 2.277 2.931.724 4.465-3.27 3.17-9.184 8.863-10.915 10.487-5.837-5.756-13.888-5.873-21.185 1.326z" transform="translate(-1146.000000, -49.000000) translate(1146.000000, 49.000000) translate(67.000000, 0.000000)"/>
                </g>
            </g>
        </g>
    </g>
</svg>
