<svg xmlns="http://www.w3.org/2000/svg" width="23" height="24" viewBox="0 0 23 24">
    <g fill="none" fill-rule="evenodd" opacity=".9">
        <g fill="#FFF" fill-rule="nonzero">
            <g>
                <g>
                    <path d="M1.109 0l11.299 11.217 3.097-3.097L1.81.212C1.582.079 1.337.006 1.109 0zM.163.522C.061.703 0 .917 0 1.158v21.799c0 .175.037.332.098.472l11.56-11.478L.163.521zm16.288 8.136l-3.31 3.293 3.31 3.277 4.044-2.315c.574-.332.656-.754.652-.978-.006-.371-.24-.718-.636-.93-.345-.185-2.902-1.675-4.06-2.347zm-4.043 4.027L1.01 23.984c.19-.01.395-.051.587-.163.446-.26 9.473-5.479 9.473-5.479l4.45-2.56-3.113-3.097z" transform="translate(-1106.000000, -458.000000) translate(1090.000000, 445.000000) translate(16.500000, 13.000000)"/>
                </g>
            </g>
        </g>
    </g>
</svg>
