<svg xmlns="http://www.w3.org/2000/svg" width="54" height="29" viewBox="0 0 54 29">
    <g fill="none" fill-rule="evenodd">
        <g fill="#FFF">
            <g>
                <path d="M14.75 13.226c5.38 5.236 14.136 8.428 21.958.815.498-.486 1.35-.023 1.016.33-3.212 3.126-4.699 4.82-7.57 7.615C18.48 33.346 7.57 28.653 0 21.286c1.565-1.523 7.041-6.675 9.03-8.52 2.457-2.274 4.92-.32 5.72.46z" transform="translate(-438.000000, -43.000000) translate(438.000000, 43.000000)"/>
                <path d="M23.554 17.035c-.187.184-1.29-.053-1.008-.332C25.73 13.561 29.89 9.21 32.737 6.401c8.685-8.566 16-7.028 19.055-4.016.916.903 2.05 2.638.652 4.019-2.942 2.852-8.266 7.976-9.824 9.438-5.253-5.18-12.499-5.286-19.066 1.193z" transform="translate(-438.000000, -43.000000) translate(438.000000, 43.000000)"/>
            </g>
        </g>
    </g>
</svg>
